<?xml version="1.0" standalone="no"?>
<!DOCTYPE svg PUBLIC "-//W3C//DTD SVG 20010904//EN"
 "http://www.w3.org/TR/2001/REC-SVG-20010904/DTD/svg10.dtd">
<svg version="1.0" xmlns="http://www.w3.org/2000/svg"
 width="300.000000pt" height="300.000000pt" viewBox="0 0 300.000000 300.000000"
 preserveAspectRatio="xMidYMid meet">
<metadata>
Created by potrace 1.11, written by Peter Selinger 2001-2013
</metadata>
<g transform="translate(0.000000,300.000000) scale(0.100000,-0.100000)"
fill="#000000" stroke="none">
<path d="M1135 2259 c-204 -407 -373 -742 -377 -745 -3 -2 -171 326 -373 728
-202 403 -371 737 -376 742 -5 6 -9 -619 -9 -1487 l0 -1497 1500 0 1500 0 0
1497 c0 823 -2 1494 -5 1491 -6 -6 -408 -811 -607 -1218 l-130 -265 -164 330
c-494 998 -578 1165 -583 1165 -3 0 -173 -333 -376 -741z m1105 -778 c0 -4
-164 -338 -364 -741 l-363 -732 -47 89 c-122 228 -694 1381 -689 1387 10 10
1463 7 1463 -3z"/>
</g>
</svg>
